<?xml version="1.0" encoding="utf-8"?>
<svg viewBox="80.2 230.465 96.056 39.496" xmlns="http://www.w3.org/2000/svg">
  <path d="M 100.174 267.893 Q 104.979 267.893 108.459 265.76 Q 111.94 263.627 113.838 259.713 Q 115.737 255.799 115.737 250.432 L 115.737 250.385 Q 115.737 245.018 113.838 241.115 Q 111.94 237.213 108.448 235.08 Q 104.955 232.947 100.174 232.947 Q 95.393 232.947 91.889 235.08 Q 88.385 237.213 86.475 241.115 Q 84.565 245.018 84.565 250.385 L 84.565 250.432 Q 84.565 255.799 86.463 259.713 Q 88.362 263.627 91.866 265.76 Q 95.369 267.893 100.174 267.893 Z M 100.174 264.002 Q 96.705 264.002 94.174 262.338 Q 91.643 260.674 90.26 257.627 Q 88.877 254.58 88.877 250.432 L 88.877 250.385 Q 88.877 246.213 90.26 243.178 Q 91.643 240.143 94.186 238.49 Q 96.729 236.838 100.174 236.838 Q 103.619 236.838 106.151 238.49 Q 108.682 240.143 110.053 243.189 Q 111.424 246.236 111.424 250.385 L 111.424 250.432 Q 111.424 254.557 110.065 257.603 Q 108.705 260.65 106.186 262.326 Q 103.666 264.002 100.174 264.002 Z" style="fill: rgb(63, 80, 187); stroke: rgb(63, 80, 187); stroke-width: 0px; white-space: pre;"/>
  <path d="M 120.715 258.927 L 133.219 258.927 L 133.219 257.029 L 123.399 257.029 L 123.399 256.982 L 133.02 243.517 L 133.02 242.017 L 121.044 242.017 L 121.044 243.915 L 130.383 243.915 L 130.383 243.962 L 120.715 257.427 Z M 136.99 258.927 L 149.494 258.927 L 149.494 257.029 L 139.674 257.029 L 139.674 256.982 L 149.295 243.517 L 149.295 242.017 L 137.319 242.017 L 137.319 243.915 L 146.658 243.915 L 146.658 243.962 L 136.99 257.427 Z M 153.765 258.927 L 155.875 258.927 L 155.875 242.017 L 153.765 242.017 Z M 161.04 258.927 L 171.516 258.927 L 171.516 257.029 L 163.149 257.029 L 163.149 251.216 L 171.083 251.216 L 171.083 249.341 L 163.149 249.341 L 163.149 243.915 L 171.516 243.915 L 171.516 242.017 L 161.04 242.017 Z" style="fill: rgb(53, 55, 68); stroke: rgb(53, 55, 68); stroke-width: 0px; white-space: pre;"/>
</svg>